# Made in Blockbench 5.0.3
mtllib blackBishopModel.mtl

o cuboid
v -0.31249999999999994 0.25 0.31250000000000006
v 0.31250000000000006 0.25 0.31249999999999994
v -0.31249999999999994 0 0.31250000000000006
v 0.31250000000000006 0 0.31249999999999994
v -0.31250000000000006 0.25 -0.31249999999999994
v 0.31249999999999994 0.25 -0.31250000000000006
v -0.31250000000000006 0 -0.31249999999999994
v 0.31249999999999994 0 -0.31250000000000006
vt 0.53125 0.625
vt 0.375 0.625
vt 0.375 0.5625
vt 0.53125 0.5625
vt 0 0.84375
vt 0.15625 0.84375
vt 0.15625 1
vt 0 1
vt 0.15625 0.671875
vt 0.15625 0.828125
vt 0 0.828125
vt 0 0.671875
vt 0.53125 0.484375
vt 0.53125 0.546875
vt 0.375 0.546875
vt 0.375 0.484375
vt 0.640625 1
vt 0.484375 1
vt 0.484375 0.9375
vt 0.640625 0.9375
vt 0.640625 0.859375
vt 0.640625 0.921875
vt 0.484375 0.921875
vt 0.484375 0.859375
vn 2.220446049250313e-16 0 1
vn 0 1 0
vn 0 -1 0
vn -1 0 2.220446049250313e-16
vn 1 0 -2.220446049250313e-16
vn -2.220446049250313e-16 0 -1
usemtl m_a62043e2-0663-c754-b058-f00ef818c2e4
f 2/1/1 1/2/1 3/3/1 4/4/1
f 5/5/2 1/6/2 2/7/2 6/8/2
f 4/9/3 3/10/3 7/11/3 8/12/3
f 3/13/4 1/14/4 5/15/4 7/16/4
f 6/17/5 2/18/5 4/19/5 8/20/5
f 7/21/6 5/22/6 6/23/6 8/24/6
o cuboid
v -0.15624999999999997 0.9375 0.15625000000000003
v 0.15625000000000003 0.9375 0.15624999999999997
v -0.15624999999999997 0.25 0.15625000000000003
v 0.15625000000000003 0.25 0.15624999999999997
v -0.15625000000000003 0.9375 -0.15624999999999997
v 0.15624999999999997 0.9375 -0.15625000000000003
v -0.15625000000000003 0.25 -0.15624999999999997
v 0.15624999999999997 0.25 -0.15625000000000003
vt 0.25 1
vt 0.171875 1
vt 0.171875 0.828125
vt 0.25 0.828125
vt 0 0.453125
vt 0.078125 0.453125
vt 0.078125 0.53125
vt 0 0.53125
vt 0.5625 0.765625
vt 0.5625 0.84375
vt 0.484375 0.84375
vt 0.484375 0.765625
vt 0.25 0.640625
vt 0.25 0.8125
vt 0.171875 0.8125
vt 0.171875 0.640625
vt 0.34375 1
vt 0.265625 1
vt 0.265625 0.828125
vt 0.34375 0.828125
vt 0.34375 0.640625
vt 0.34375 0.8125
vt 0.265625 0.8125
vt 0.265625 0.640625
vn 2.220446049250313e-16 0 1
vn 0 1 0
vn 0 -1 0
vn -1 0 2.220446049250313e-16
vn 1 0 -2.220446049250313e-16
vn -2.220446049250313e-16 0 -1
usemtl m_a62043e2-0663-c754-b058-f00ef818c2e4
f 10/25/7 9/26/7 11/27/7 12/28/7
f 13/29/8 9/30/8 10/31/8 14/32/8
f 12/33/9 11/34/9 15/35/9 16/36/9
f 11/37/10 9/38/10 13/39/10 15/40/10
f 14/41/11 10/42/11 12/43/11 16/44/11
f 15/45/12 13/46/12 14/47/12 16/48/12
o cuboid
v -0.21875000000000003 1.093750216180597 0.30935921676911454
v 0.21874999999999997 1.093750216180597 0.30935921676911443
v -0.21875000000000003 0.7843909994114824 4.85722573273506e-17
v 0.21874999999999997 0.7843909994114824 -4.85722573273506e-17
v -0.2187500000000002 1.4031094329497114 4.85722573273506e-17
v 0.2187499999999998 1.4031094329497114 -4.85722573273506e-17
v -0.2187500000000002 1.093750216180597 -0.30935921676911443
v 0.2187499999999998 1.093750216180597 -0.30935921676911454
vt 0.109375 0.65625
vt 0 0.65625
vt 0 0.546875
vt 0.109375 0.546875
vt 0.359375 0.890625
vt 0.46875 0.890625
vt 0.46875 1
vt 0.359375 1
vt 0.46875 0.765625
vt 0.46875 0.875
vt 0.359375 0.875
vt 0.359375 0.765625
vt 0.46875 0.640625
vt 0.46875 0.75
vt 0.359375 0.75
vt 0.359375 0.640625
vt 0.234375 0.625
vt 0.125 0.625
vt 0.125 0.515625
vt 0.234375 0.515625
vt 0.359375 0.515625
vt 0.359375 0.625
vt 0.25 0.625
vt 0.25 0.515625
vn 2.355138688025663e-16 -0.7071067811865475 0.7071067811865476
vn 7.850462293418876e-17 0.7071067811865476 0.7071067811865476
vn -7.850462293418876e-17 -0.7071067811865476 -0.7071067811865476
vn -1 -2.355138688025663e-16 2.3551386880256634e-16
vn 1 2.355138688025663e-16 -2.3551386880256634e-16
vn -2.355138688025663e-16 0.7071067811865475 -0.7071067811865476
usemtl m_a62043e2-0663-c754-b058-f00ef818c2e4
f 18/49/13 17/50/13 19/51/13 20/52/13
f 21/53/14 17/54/14 18/55/14 22/56/14
f 20/57/15 19/58/15 23/59/15 24/60/15
f 19/61/16 17/62/16 21/63/16 23/64/16
f 22/65/17 18/66/17 20/67/17 24/68/17
f 23/69/18 21/70/18 22/71/18 24/72/18