# Made in Blockbench 5.0.3
mtllib blackPawnModel.mtl

o cuboid
v 0.3125 0.25 0.3125
v 0.3125 0.25 -0.3125
v 0.3125 0 0.3125
v 0.3125 0 -0.3125
v -0.3125 0.25 0.3125
v -0.3125 0.25 -0.3125
v -0.3125 0 0.3125
v -0.3125 0 -0.3125
vt 0.15625 0.65625
vt 0 0.65625
vt 0 0.59375
vt 0.15625 0.59375
vt 0 0.84375
vt 0.15625 0.84375
vt 0.15625 1
vt 0 1
vt 0.15625 0.671875
vt 0.15625 0.828125
vt 0 0.828125
vt 0 0.671875
vt 0.328125 0.5625
vt 0.328125 0.625
vt 0.171875 0.625
vt 0.171875 0.5625
vt 0.5 0.625
vt 0.34375 0.625
vt 0.34375 0.5625
vt 0.5 0.5625
vt 0.15625 0.515625
vt 0.15625 0.578125
vt 0 0.578125
vt 0 0.515625
vn 1 0 0
vn 0 1 0
vn 0 -1 0
vn 0 0 1
vn 0 0 -1
vn -1 0 0
usemtl m_6c629455-32d3-e235-e4c6-fcd847c54176
f 2/1/1 1/2/1 3/3/1 4/4/1
f 5/5/2 1/6/2 2/7/2 6/8/2
f 4/9/3 3/10/3 7/11/3 8/12/3
f 3/13/4 1/14/4 5/15/4 7/16/4
f 6/17/5 2/18/5 4/19/5 8/20/5
f 7/21/6 5/22/6 6/23/6 8/24/6
o cuboid
v 0.15625 0.6875 0.15625
v 0.15625 0.6875 -0.15625
v 0.15625 0.25 0.15625
v 0.15625 0.25 -0.15625
v -0.15625 0.6875 0.15625
v -0.15625 0.6875 -0.15625
v -0.15625 0.25 0.15625
v -0.15625 0.25 -0.15625
vt 0.5 1
vt 0.421875 1
vt 0.421875 0.890625
vt 0.5 0.890625
vt 0.265625 0.46875
vt 0.34375 0.46875
vt 0.34375 0.546875
vt 0.265625 0.546875
vt 0.4375 0.46875
vt 0.4375 0.546875
vt 0.359375 0.546875
vt 0.359375 0.46875
vt 0.5 0.765625
vt 0.5 0.875
vt 0.421875 0.875
vt 0.421875 0.765625
vt 0.5 0.75
vt 0.421875 0.75
vt 0.421875 0.640625
vt 0.5 0.640625
vt 0.25 0.4375
vt 0.25 0.546875
vt 0.171875 0.546875
vt 0.171875 0.4375
vn 1 0 0
vn 0 1 0
vn 0 -1 0
vn 0 0 1
vn 0 0 -1
vn -1 0 0
usemtl m_6c629455-32d3-e235-e4c6-fcd847c54176
f 10/25/7 9/26/7 11/27/7 12/28/7
f 13/29/8 9/30/8 10/31/8 14/32/8
f 12/33/9 11/34/9 15/35/9 16/36/9
f 11/37/10 9/38/10 13/39/10 15/40/10
f 14/41/11 10/42/11 12/43/11 16/44/11
f 15/45/12 13/46/12 14/47/12 16/48/12
o cuboid
v 0.21875 1.125 0.21875
v 0.21875 1.125 -0.21875
v 0.21875 0.6875 0.21875
v 0.21875 0.6875 -0.21875
v -0.21875 1.125 0.21875
v -0.21875 1.125 -0.21875
v -0.21875 0.6875 0.21875
v -0.21875 0.6875 -0.21875
vt 0.28125 1
vt 0.171875 1
vt 0.171875 0.890625
vt 0.28125 0.890625
vt 0.171875 0.765625
vt 0.28125 0.765625
vt 0.28125 0.875
vt 0.171875 0.875
vt 0.28125 0.640625
vt 0.28125 0.75
vt 0.171875 0.75
vt 0.171875 0.640625
vt 0.40625 0.890625
vt 0.40625 1
vt 0.296875 1
vt 0.296875 0.890625
vt 0.40625 0.875
vt 0.296875 0.875
vt 0.296875 0.765625
vt 0.40625 0.765625
vt 0.40625 0.640625
vt 0.40625 0.75
vt 0.296875 0.75
vt 0.296875 0.640625
vn 1 0 0
vn 0 1 0
vn 0 -1 0
vn 0 0 1
vn 0 0 -1
vn -1 0 0
usemtl m_6c629455-32d3-e235-e4c6-fcd847c54176
f 18/49/13 17/50/13 19/51/13 20/52/13
f 21/53/14 17/54/14 18/55/14 22/56/14
f 20/57/15 19/58/15 23/59/15 24/60/15
f 19/61/16 17/62/16 21/63/16 23/64/16
f 22/65/17 18/66/17 20/67/17 24/68/17
f 23/69/18 21/70/18 22/71/18 24/72/18