# Made in Blockbench 5.0.3
mtllib whiteKingModel.mtl

o cuboid
v 0.3125 0.25 0.3125
v 0.3125 0.25 -0.3125
v 0.3125 0 0.3125
v 0.3125 0 -0.3125
v -0.3125 0.25 0.3125
v -0.3125 0.25 -0.3125
v -0.3125 0 0.3125
v -0.3125 0 -0.3125
vt 0.515625 0.609375
vt 0.359375 0.609375
vt 0.359375 0.546875
vt 0.515625 0.546875
vt 0 0.84375
vt 0.15625 0.84375
vt 0.15625 1
vt 0 1
vt 0.15625 0.671875
vt 0.15625 0.828125
vt 0 0.828125
vt 0 0.671875
vt 0.296875 0.5
vt 0.296875 0.5625
vt 0.140625 0.5625
vt 0.140625 0.5
vt 0.46875 0.53125
vt 0.3125 0.53125
vt 0.3125 0.46875
vt 0.46875 0.46875
vt 0.640625 0.796875
vt 0.640625 0.859375
vt 0.484375 0.859375
vt 0.484375 0.796875
vn 1 0 0
vn 0 1 0
vn 0 -1 0
vn 0 0 1
vn 0 0 -1
vn -1 0 0
usemtl m_7254f480-7578-855b-6eee-5b78059b9b93
f 2/1/1 1/2/1 3/3/1 4/4/1
f 5/5/2 1/6/2 2/7/2 6/8/2
f 4/9/3 3/10/3 7/11/3 8/12/3
f 3/13/4 1/14/4 5/15/4 7/16/4
f 6/17/5 2/18/5 4/19/5 8/20/5
f 7/21/6 5/22/6 6/23/6 8/24/6
o cuboid
v 0.15625 1.0625 0.15625
v 0.15625 1.0625 -0.15625
v 0.15625 0.25 0.15625
v 0.15625 0.25 -0.15625
v -0.15625 1.0625 0.15625
v -0.15625 1.0625 -0.15625
v -0.15625 0.25 0.15625
v -0.15625 0.25 -0.15625
vt 0.25 1
vt 0.171875 1
vt 0.171875 0.796875
vt 0.25 0.796875
vt 0 0.4375
vt 0.078125 0.4375
vt 0.078125 0.515625
vt 0 0.515625
vt 0.5625 0.703125
vt 0.5625 0.78125
vt 0.484375 0.78125
vt 0.484375 0.703125
vt 0.25 0.578125
vt 0.25 0.78125
vt 0.171875 0.78125
vt 0.171875 0.578125
vt 0.34375 1
vt 0.265625 1
vt 0.265625 0.796875
vt 0.34375 0.796875
vt 0.34375 0.578125
vt 0.34375 0.78125
vt 0.265625 0.78125
vt 0.265625 0.578125
vn 1 0 0
vn 0 1 0
vn 0 -1 0
vn 0 0 1
vn 0 0 -1
vn -1 0 0
usemtl m_7254f480-7578-855b-6eee-5b78059b9b93
f 10/25/7 9/26/7 11/27/7 12/28/7
f 13/29/8 9/30/8 10/31/8 14/32/8
f 12/33/9 11/34/9 15/35/9 16/36/9
f 11/37/10 9/38/10 13/39/10 15/40/10
f 14/41/11 10/42/11 12/43/11 16/44/11
f 15/45/12 13/46/12 14/47/12 16/48/12
o cuboid
v 0.21875 0.9375 0.21875
v 0.21875 0.9375 -0.21875
v 0.21875 0.875 0.21875
v 0.21875 0.875 -0.21875
v -0.21875 0.9375 0.21875
v -0.21875 0.9375 -0.21875
v -0.21875 0.875 0.21875
v -0.21875 0.875 -0.21875
vt 0.6875 0.78125
vt 0.578125 0.78125
vt 0.578125 0.765625
vt 0.6875 0.765625
vt 0.359375 0.75
vt 0.46875 0.75
vt 0.46875 0.859375
vt 0.359375 0.859375
vt 0.46875 0.625
vt 0.46875 0.734375
vt 0.359375 0.734375
vt 0.359375 0.625
vt 0.6875 0.734375
vt 0.6875 0.75
vt 0.578125 0.75
vt 0.578125 0.734375
vt 0.6875 0.71875
vt 0.578125 0.71875
vt 0.578125 0.703125
vt 0.6875 0.703125
vt 0.5 0.40625
vt 0.5 0.421875
vt 0.390625 0.421875
vt 0.390625 0.40625
vn 1 0 0
vn 0 1 0
vn 0 -1 0
vn 0 0 1
vn 0 0 -1
vn -1 0 0
usemtl m_7254f480-7578-855b-6eee-5b78059b9b93
f 18/49/13 17/50/13 19/51/13 20/52/13
f 21/53/14 17/54/14 18/55/14 22/56/14
f 20/57/15 19/58/15 23/59/15 24/60/15
f 19/61/16 17/62/16 21/63/16 23/64/16
f 22/65/17 18/66/17 20/67/17 24/68/17
f 23/69/18 21/70/18 22/71/18 24/72/18
o cuboid
v 0.25 1.25 0.25
v 0.25 1.25 -0.25
v 0.25 1.0625 0.25
v 0.25 1.0625 -0.25
v -0.25 1.25 0.25
v -0.25 1.25 -0.25
v -0.25 1.0625 0.25
v -0.25 1.0625 -0.25
vt 0.609375 0.6875
vt 0.484375 0.6875
vt 0.484375 0.640625
vt 0.609375 0.640625
vt 0 0.53125
vt 0.125 0.53125
vt 0.125 0.65625
vt 0 0.65625
vt 0.484375 0.875
vt 0.484375 1
vt 0.359375 1
vt 0.359375 0.875
vt 0.609375 0.484375
vt 0.609375 0.53125
vt 0.484375 0.53125
vt 0.484375 0.484375
vt 0.625 1
vt 0.5 1
vt 0.5 0.953125
vt 0.625 0.953125
vt 0.625 0.890625
vt 0.625 0.9375
vt 0.5 0.9375
vt 0.5 0.890625
vn 1 0 0
vn 0 1 0
vn 0 -1 0
vn 0 0 1
vn 0 0 -1
vn -1 0 0
usemtl m_7254f480-7578-855b-6eee-5b78059b9b93
f 26/73/19 25/74/19 27/75/19 28/76/19
f 29/77/20 25/78/20 26/79/20 30/80/20
f 28/81/21 27/82/21 31/83/21 32/84/21
f 27/85/22 25/86/22 29/87/22 31/88/22
f 30/89/23 26/90/23 28/91/23 32/92/23
f 31/93/24 29/94/24 30/95/24 32/96/24
o cuboid
v 0.0625 1.625 0.0625
v 0.0625 1.625 -0.0625
v 0.0625 1.25 0.0625
v 0.0625 1.25 -0.0625
v -0.0625 1.625 0.0625
v -0.0625 1.625 -0.0625
v -0.0625 1.25 0.0625
v -0.0625 1.25 -0.0625
vt 0.125 0.515625
vt 0.09375 0.515625
vt 0.09375 0.421875
vt 0.125 0.421875
vt 0 0.390625
vt 0.03125 0.390625
vt 0.03125 0.421875
vt 0 0.421875
vt 0.078125 0.390625
vt 0.078125 0.421875
vt 0.046875 0.421875
vt 0.046875 0.390625
vt 0.171875 0.390625
vt 0.171875 0.484375
vt 0.140625 0.484375
vt 0.140625 0.390625
vt 0.21875 0.484375
vt 0.1875 0.484375
vt 0.1875 0.390625
vt 0.21875 0.390625
vt 0.265625 0.390625
vt 0.265625 0.484375
vt 0.234375 0.484375
vt 0.234375 0.390625
vn 1 0 0
vn 0 1 0
vn 0 -1 0
vn 0 0 1
vn 0 0 -1
vn -1 0 0
usemtl m_7254f480-7578-855b-6eee-5b78059b9b93
f 34/97/25 33/98/25 35/99/25 36/100/25
f 37/101/26 33/102/26 34/103/26 38/104/26
f 36/105/27 35/106/27 39/107/27 40/108/27
f 35/109/28 33/110/28 37/111/28 39/112/28
f 38/113/29 34/114/29 36/115/29 40/116/29
f 39/117/30 37/118/30 38/119/30 40/120/30
o cuboid
v 0.1875 1.5 0.0625
v 0.1875 1.5 -0.0625
v 0.1875 1.375 0.0625
v 0.1875 1.375 -0.0625
v -0.1875 1.5 0.0625
v -0.1875 1.5 -0.0625
v -0.1875 1.375 0.0625
v -0.1875 1.375 -0.0625
vt 0.546875 0.421875
vt 0.515625 0.421875
vt 0.515625 0.390625
vt 0.546875 0.390625
vt 0.53125 0.59375
vt 0.625 0.59375
vt 0.625 0.625
vt 0.53125 0.625
vt 0.625 0.546875
vt 0.625 0.578125
vt 0.53125 0.578125
vt 0.53125 0.546875
vt 0.578125 0.4375
vt 0.578125 0.46875
vt 0.484375 0.46875
vt 0.484375 0.4375
vt 0.375 0.453125
vt 0.28125 0.453125
vt 0.28125 0.421875
vt 0.375 0.421875
vt 0.59375 0.390625
vt 0.59375 0.421875
vt 0.5625 0.421875
vt 0.5625 0.390625
vn 1 0 0
vn 0 1 0
vn 0 -1 0
vn 0 0 1
vn 0 0 -1
vn -1 0 0
usemtl m_7254f480-7578-855b-6eee-5b78059b9b93
f 42/121/31 41/122/31 43/123/31 44/124/31
f 45/125/32 41/126/32 42/127/32 46/128/32
f 44/129/33 43/130/33 47/131/33 48/132/33
f 43/133/34 41/134/34 45/135/34 47/136/34
f 46/137/35 42/138/35 44/139/35 48/140/35
f 47/141/36 45/142/36 46/143/36 48/144/36