# Made in Blockbench 5.0.3
mtllib coin2Model.mtl

o cuboid
v 0.04534589299649536 0.0625 0.1245868170728765
v 0.1245868170728765 0.0625 -0.04534589299649536
v 0.04534589299649536 0 0.1245868170728765
v 0.1245868170728765 0 -0.04534589299649536
v -0.1245868170728765 0.0625 0.04534589299649536
v -0.04534589299649536 0.0625 -0.1245868170728765
v -0.1245868170728765 0 0.04534589299649536
v -0.04534589299649536 0 -0.1245868170728765
vt 0.1875 0.5
vt 0 0.5
vt 0 0.4375
vt 0.1875 0.4375
vt 0 0.8125
vt 0.1875 0.8125
vt 0.1875 1
vt 0 1
vt 0.1875 0.5625
vt 0.1875 0.75
vt 0 0.75
vt 0 0.5625
vt 0.6875 0.9375
vt 0.6875 1
vt 0.5 1
vt 0.5 0.9375
vt 0.6875 0.875
vt 0.5 0.875
vt 0.5 0.8125
vt 0.6875 0.8125
vt 0.4375 0.4375
vt 0.4375 0.5
vt 0.25 0.5
vt 0.25 0.4375
vn 0.9063077870366499 0 0.42261826174069944
vn 0 1 0
vn 0 -1 0
vn -0.42261826174069944 0 0.9063077870366499
vn 0.42261826174069944 0 -0.9063077870366499
vn -0.9063077870366499 0 -0.42261826174069944
usemtl m_7b0d4f6d-f227-ff36-89aa-fbc974cf8e8f
f 2/1/1 1/2/1 3/3/1 4/4/1
f 5/5/2 1/6/2 2/7/2 6/8/2
f 4/9/3 3/10/3 7/11/3 8/12/3
f 3/13/4 1/14/4 5/15/4 7/16/4
f 6/17/5 2/18/5 4/19/5 8/20/5
f 7/21/6 5/22/6 6/23/6 8/24/6
o cuboid
v -0.14978179476189746 0.0625 -0.09858942836453964
v 0.02641057163546036 0.0625 -0.16271820523810254
v -0.14978179476189746 0 -0.09858942836453964
v 0.02641057163546036 0 -0.16271820523810254
v -0.21391057163546034 0.0625 -0.27478179476189746
v -0.037718205238102556 0.0625 -0.33891057163546034
v -0.21391057163546034 0 -0.27478179476189746
v -0.037718205238102556 0 -0.33891057163546034
vt 0.6875 0.75
vt 0.5 0.75
vt 0.5 0.6875
vt 0.6875 0.6875
vt 0.25 0.8125
vt 0.4375 0.8125
vt 0.4375 1
vt 0.25 1
vt 0.4375 0.5625
vt 0.4375 0.75
vt 0.25 0.75
vt 0.25 0.5625
vt 0.6875 0.5625
vt 0.6875 0.625
vt 0.5 0.625
vt 0.5 0.5625
vt 0.6875 0.5
vt 0.5 0.5
vt 0.5 0.4375
vt 0.6875 0.4375
vt 0.1875 0.3125
vt 0.1875 0.375
vt 0 0.375
vt 0 0.3125
vn 0.3420201433256689 0 0.9396926207859083
vn 0 1 0
vn 0 -1 0
vn -0.9396926207859083 0 0.3420201433256689
vn 0.9396926207859083 0 -0.3420201433256689
vn -0.3420201433256689 0 -0.9396926207859083
usemtl m_7b0d4f6d-f227-ff36-89aa-fbc974cf8e8f
f 10/25/7 9/26/7 11/27/7 12/28/7
f 13/29/8 9/30/8 10/31/8 14/32/8
f 12/33/9 11/34/9 15/35/9 16/36/9
f 11/37/10 9/38/10 13/39/10 15/40/10
f 14/41/11 10/42/11 12/43/11 16/44/11
f 15/45/12 13/46/12 14/47/12 16/48/12