# Made in Blockbench 5.0.3
mtllib chessBoardModel.mtl

o cuboid
v 0.5625 0 0.5625
v 0.5625 0 -0.5625
v 0.5625 -0.03125 0.5625
v 0.5625 -0.03125 -0.5625
v -0.5625 0 0.5625
v -0.5625 0 -0.5625
v -0.5625 -0.03125 0.5625
v -0.5625 -0.03125 -0.5625
vt 0.578125 1
vt 0.296875 1
vt 0.296875 0.9921875
vt 0.578125 0.9921875
vt 0.578125 0.9765625
vt 0.578125 0.984375
vt 0.296875 0.984375
vt 0.296875 0.9765625
vt 0 0.71875
vt 0.28125 0.71875
vt 0.28125 1
vt 0 1
vt 0.28125 0.421875
vt 0.28125 0.703125
vt 0 0.703125
vt 0 0.421875
vt 0.578125 0.9609375
vt 0.578125 0.96875
vt 0.296875 0.96875
vt 0.296875 0.9609375
vt 0.578125 0.953125
vt 0.296875 0.953125
vt 0.296875 0.9453125
vt 0.578125 0.9453125
vn 1 0 0
vn -1 0 0
vn 0 1 0
vn 0 -1 0
vn 0 0 1
vn 0 0 -1
usemtl m_95e997bf-9aca-31a9-90eb-ec0f10ae7438
f 2/1/1 1/2/1 3/3/1 4/4/1
f 7/5/2 5/6/2 6/7/2 8/8/2
f 5/9/3 1/10/3 2/11/3 6/12/3
f 4/13/4 3/14/4 7/15/4 8/16/4
f 3/17/5 1/18/5 5/19/5 7/20/5
f 6/21/6 2/22/6 4/23/6 8/24/6